<?xml version="1.0" encoding="iso-8859-1"?>
<!-- Generator: Adobe Illustrator 19.0.0, SVG Export Plug-In . SVG Version: 6.00 Build 0)  -->
<svg version="1.1" id="Layer_1" xmlns="http://www.w3.org/2000/svg" xmlns:xlink="http://www.w3.org/1999/xlink" x="0px" y="0px"
	 viewBox="0 0 512 512" style="enable-background:new 0 0 512 512;" xml:space="preserve">
<g>
	<g>
		<path d="M387.965,220.139v-88.173C387.965,59.199,328.766,0,256,0S124.035,59.199,124.035,131.965v88.174
			C95.756,252.254,80.23,293.318,80.23,336.23C80.23,433.15,159.08,512,256,512s175.77-78.85,175.77-175.77
			C431.77,293.317,416.243,252.254,387.965,220.139z M144.432,131.965C144.433,70.447,194.481,20.398,256,20.398
			c61.518,0,111.567,50.049,111.567,111.567v68.453c-7.513-6.18-15.523-11.724-23.982-16.592v-51.861
			c0-48.295-39.289-87.586-87.585-87.586c-48.295,0-87.586,39.29-87.586,87.586v51.862c-8.476,4.879-16.488,10.432-23.982,16.595
			V131.965z M323.186,131.965v41.828c-21.198-8.752-44.128-13.333-67.186-13.333c-23.059,0-45.989,4.581-67.187,13.333v-41.828
			c0-37.047,30.14-67.187,67.187-67.187S323.186,94.918,323.186,131.965z M256,491.602c-85.672,0-155.372-69.699-155.372-155.372
			c0-39.122,14.598-76.506,41.105-105.264c12.017-13.037,26.031-23.844,41.656-32.119c22.215-11.768,47.323-17.987,72.611-17.987
			s50.396,6.221,72.611,17.987c15.623,8.276,29.639,19.083,41.656,32.119h-0.001c26.508,28.759,41.106,66.142,41.106,105.264
			C411.372,421.902,341.672,491.602,256,491.602z"/>
	</g>
</g>
<g>
	<g>
		<path d="M330.395,267.689c-7.819-8.483-16.939-15.514-27.106-20.899c-14.474-7.668-30.827-11.721-47.289-11.721
			c-16.462,0-32.814,4.053-47.289,11.72c-10.168,5.386-19.289,12.417-27.107,20.9c-17.259,18.726-26.765,43.067-26.765,68.541
			c0,55.781,45.38,101.161,101.161,101.161c55.779,0,101.161-45.38,101.161-101.161
			C357.161,310.758,347.655,286.416,330.395,267.689z M329.139,349.27c-5.355-1.739-11.112,1.19-12.852,6.549
			c-1.74,5.357,1.191,11.111,6.549,12.852l6.193,2.012c-4.356,9.19-10.399,17.424-17.721,24.319l-3.803-5.234
			c-3.312-4.558-9.69-5.567-14.246-2.256c-4.557,3.311-5.567,9.689-2.256,14.246l3.825,5.264
			c-8.696,4.789-18.366,8.004-28.627,9.304v-6.508c0-5.633-4.567-10.199-10.199-10.199c-5.633,0-10.199,4.566-10.199,10.199v6.508
			c-10.261-1.299-19.931-4.515-28.627-9.304l3.825-5.264c3.311-4.557,2.301-10.936-2.256-14.246
			c-4.557-3.311-10.935-2.3-14.246,2.256l-3.802,5.233c-7.322-6.895-13.365-15.128-17.719-24.32l6.193-2.012
			c5.357-1.741,8.289-7.495,6.548-12.852c-1.741-5.357-7.493-8.287-12.852-6.548l-6.197,2.013c-0.924-4.88-1.428-9.908-1.428-15.053
			c0-5.096,0.477-10.134,1.407-15.059l6.217,2.021c1.047,0.34,2.109,0.502,3.154,0.502c4.299,0,8.298-2.741,9.698-7.051
			c1.741-5.357-1.191-11.111-6.548-12.852l-6.202-2.015c3.464-7.333,8.028-14.173,13.638-20.261c1.308-1.419,2.67-2.773,4.066-4.089
			l3.826,5.266c1.996,2.747,5.106,4.205,8.26,4.205c2.079,0,4.177-0.633,5.987-1.948c4.557-3.312,5.567-9.689,2.256-14.246
			l-3.834-5.277c0.366-0.202,0.725-0.414,1.095-0.61c8.545-4.527,17.917-7.469,27.541-8.695v6.523
			c0,5.633,4.566,10.199,10.199,10.199c5.632,0,10.199-4.566,10.199-10.199v-6.523c9.624,1.226,18.995,4.167,27.541,8.695
			c0.37,0.196,0.729,0.409,1.095,0.611l-3.834,5.276c-3.311,4.557-2.301,10.936,2.256,14.246c1.809,1.316,3.907,1.949,5.987,1.949
			c3.154,0,6.264-1.457,8.259-4.205l3.827-5.266c1.396,1.316,2.76,2.67,4.067,4.089h-0.001c5.611,6.088,10.176,12.927,13.639,20.261
			l-6.202,2.015c-5.358,1.741-8.289,7.494-6.549,12.852c1.4,4.31,5.398,7.051,9.698,7.051c1.043,0,2.106-0.162,3.154-0.502
			l6.217-2.02c0.931,4.925,1.407,9.965,1.407,15.059c0,5.146-0.504,10.173-1.428,15.053L329.139,349.27z"/>
	</g>
</g>
<g>
	<g>
		<path d="M290.558,304.389c-3.816-4.142-10.271-4.404-14.411-0.586c-4.143,3.818-4.404,10.271-0.586,14.411
			c4.537,4.922,7.034,11.32,7.034,18.016c0,14.664-11.93,26.594-26.594,26.594c-14.663,0-26.594-11.93-26.594-26.594
			c0-5.633-4.566-10.199-10.199-10.199s-10.199,4.566-10.199,10.199c0,25.912,21.081,46.993,46.993,46.993
			s46.993-21.081,46.993-46.993C302.993,324.396,298.577,313.089,290.558,304.389z"/>
	</g>
</g>
<g>
	<g>
		<path d="M264.139,298.935c-0.308-5.625-5.114-9.935-10.742-9.626c-5.617,0.308-11.069,1.603-16.206,3.849
			c-5.161,2.257-7.515,8.271-5.258,13.431c1.675,3.832,5.42,6.115,9.35,6.115c1.364,0,2.752-0.275,4.081-0.857
			c2.897-1.267,5.975-1.997,9.149-2.171C260.138,309.368,264.447,304.558,264.139,298.935z"/>
	</g>
</g>
<g>
</g>
<g>
</g>
<g>
</g>
<g>
</g>
<g>
</g>
<g>
</g>
<g>
</g>
<g>
</g>
<g>
</g>
<g>
</g>
<g>
</g>
<g>
</g>
<g>
</g>
<g>
</g>
<g>
</g>
</svg>
